<?xml version="1.0" encoding="utf-8"?>
<!-- Generator: Adobe Illustrator 25.3.1, SVG Export Plug-In . SVG Version: 6.00 Build 0)  -->
<svg version="1.1" id="레이어_1" xmlns="http://www.w3.org/2000/svg" xmlns:xlink="http://www.w3.org/1999/xlink" x="0px"
	 y="0px" viewBox="0 0 295.5 28.6" style="enable-background:new 0 0 295.5 28.6;" xml:space="preserve">
<style type="text/css">
	.st0{fill:#fff;}
</style>
<g>
	<path class="st0" d="M16.3,27.7V16.6H6.6v11.1H0V0.8h6.6v10.4h9.6V0.8h6.6v26.9H16.3z"/>
	<path class="st0" d="M45.1,27.7L43.5,23h-9.2l-1.7,4.7h-7l9.8-26.9h7.3l9.6,26.9H45.1z M38.9,9.1l-2.9,8.5h5.7L38.9,9.1z"/>
	<path class="st0" d="M54.8,27.7V0.8h6.6v21h8v5.9H54.8z"/>
	<path class="st0" d="M85.1,28.6c-8.1,0-14.2-6.1-14.2-14.3C70.9,6.1,77,0,85,0c8.1,0,14.2,6.1,14.2,14.3
		C99.2,22.5,93.2,28.6,85.1,28.6z M85,6.7c-4,0-7.2,3.4-7.2,7.5c0,4.2,3.2,7.5,7.2,7.5s7.2-3.3,7.2-7.5C92.2,10.1,89,6.7,85,6.7z"/>
	<path class="st0" d="M126.6,27.7l-6.3-10.3v10.3h-6.6V0.8h9.4c2.9,0,5.8,0.7,7.4,2.4c1.4,1.5,2.1,3.4,2.1,5.8
		c0,3.7-2.3,6.9-5.8,7.5l8.2,11.3H126.6z M121.5,6.2h-1.3v6.7h1.3c2.6,0,4.1-1.3,4.1-3.3S124.1,6.2,121.5,6.2z"/>
	<path class="st0" d="M150.2,28.6c-8.1,0-14.2-6.1-14.2-14.3c0-8.2,6-14.3,14.1-14.3c8.1,0,14.2,6.1,14.2,14.3
		C164.3,22.5,158.2,28.6,150.2,28.6z M150.1,6.7c-4,0-7.2,3.4-7.2,7.5c0,4.2,3.2,7.5,7.2,7.5s7.2-3.3,7.2-7.5
		C157.3,10.1,154.1,6.7,150.1,6.7z"/>
	<path class="st0" d="M185.3,27.7l-1.7-4.7h-9.2l-1.7,4.7h-7l9.8-26.9h7.3l9.6,26.9H185.3z M179,9.1l-2.9,8.5h5.7L179,9.1z"/>
	<path class="st0" d="M202.8,28.4c-3.3,0-6.3-1.2-9-2.9l2.8-5.6c1.5,1.3,4,2.6,5.9,2.6c1.9,0,3.1-0.9,3.1-2.5
		c0-4.1-10.6-2.5-10.6-11.2c0-5,3.8-8.5,9.2-8.5c2.5,0,5.2,0.7,7.5,2L209,7.8c-1.3-1.2-2.9-1.8-4.4-1.8C203,6,202,6.9,202,8.2
		c0,4,10.7,1.9,10.7,11.1C212.6,24.6,208.5,28.4,202.8,28.4z"/>
	<path class="st0" d="M226.5,6.7v21h-6.6v-21h-5.5V0.8H232v5.9H226.5z"/>
	<path class="st0" d="M235,27.7V0.8h14.5v5.9h-7.9v4.5h7.5v5.9h-7.5v4.6h7.9v5.9H235z"/>
	<path class="st0" d="M267.2,27.7l-6.3-10.3v10.3h-6.6V0.8h9.4c2.9,0,5.8,0.7,7.4,2.4c1.4,1.5,2.1,3.4,2.1,5.8
		c0,3.7-2.3,6.9-5.8,7.5l8.2,11.3H267.2z M262.1,6.2h-1.2v6.7h1.2c2.6,0,4.1-1.3,4.1-3.3S264.7,6.2,262.1,6.2z"/>
	<path class="st0" d="M285.7,28.4c-3.3,0-6.3-1.2-9-2.9l2.8-5.6c1.5,1.3,4,2.6,5.9,2.6c1.9,0,3.1-0.9,3.1-2.5
		c0-4.1-10.6-2.5-10.6-11.2c0-5,3.8-8.5,9.2-8.5c2.5,0,5.2,0.7,7.5,2l-2.7,5.6C290.6,6.6,289,6,287.5,6c-1.6,0-2.7,0.9-2.7,2.2
		c0,4,10.7,1.9,10.7,11.1C295.5,24.6,291.4,28.4,285.7,28.4z"/>
</g>
</svg>
